<?xml version="1.0" encoding="UTF-8"?>
<svg version="1.1" xmlns="http://www.w3.org/2000/svg" width="640" height="640">
<path d="M0 0 C1.07121094 0.48082031 2.14242188 0.96164063 3.24609375 1.45703125 C45.61882289 21.407285 79.15641944 60.39952668 95.62890625 103.890625 C111.96036869 151.37876995 109.09649521 201.44467544 87.29272461 246.57910156 C78.47107829 264.38458391 66.65722075 279.66981475 53 294 C52.23429687 294.83015625 51.46859375 295.6603125 50.6796875 296.515625 C20.63234376 328.09079977 -24.50924182 347.45749493 -67.84545898 349.10839844 C-120.8727096 350.20480121 -167.75468575 331.65120598 -206 295 C-206.75152344 294.28972656 -207.50304687 293.57945312 -208.27734375 292.84765625 C-240.26577109 261.87272364 -259.08615047 216.20688423 -260.16796875 171.96484375 C-260.6211371 122.42818341 -243.56931058 77.50286429 -210 41 C-209.49919922 40.4539209 -208.99839844 39.9078418 -208.48242188 39.34521484 C-155.61069154 -17.56110794 -69.8385352 -32.47466154 0 0 Z M-156.125 26.5625 C-159.13895313 29.84024418 -161.73918355 33.16644167 -164 37 C-158.08192624 36.39611492 -152.32425142 35.31343152 -146.50512695 34.07568359 C-143.17838027 33.38026903 -140.0185761 32.90108733 -136.625 32.8125 C-132.02153935 31.78068985 -130.21387836 29.73486134 -126.87109375 26.51953125 C-117.23637023 18.0645698 -105.67626534 11.21997745 -94 6 C-94 5.67 -94 5.34 -94 5 C-113.20222334 3.98730668 -142.23087963 13.09762888 -156.125 26.5625 Z M-114 41 C-114.88171875 41.72960937 -115.7634375 42.45921875 -116.671875 43.2109375 C-126.91046285 52.0186668 -135.95945913 62.8463592 -142 75 C-141.67 75.66 -141.34 76.32 -141 77 C-139.2699694 75.70949069 -137.54104644 74.41749656 -135.8125 73.125 C-135.27077148 72.72079834 -134.72904297 72.31659668 -134.17089844 71.90014648 C-131.37610842 69.80807178 -128.61054174 67.69222587 -125.87109375 65.52734375 C-98.49305862 43.90589173 -67.51262388 31.5017033 -32.3125 31.6875 C-31.61167297 31.68899048 -30.91084595 31.69048096 -30.18878174 31.6920166 C-15.1424199 31.74943075 -1.4915865 33.70380783 12.91796875 38.08203125 C16.91139708 39.2714554 20.92122124 40.15611474 25 41 C21.34944583 37.12214718 17.57249137 34.10402128 13.125 31.1875 C12.4664502 30.75518066 11.80790039 30.32286133 11.12939453 29.87744141 C0.82027137 23.21000802 -9.66842653 17.93550245 -21.125 13.5 C-22.02621582 13.14921387 -22.92743164 12.79842773 -23.85595703 12.43701172 C-24.71044434 12.11748535 -25.56493164 11.79795898 -26.4453125 11.46875 C-27.58250732 11.04239258 -27.58250732 11.04239258 -28.74267578 10.60742188 C-55.5469313 3.39468256 -94.5112942 24.5857157 -114 41 Z M-67 56 C-67 56.33 -67 56.66 -67 57 C-65.87464844 57.15855469 -64.74929688 57.31710938 -63.58984375 57.48046875 C-48.70946618 59.69173363 -30.10564298 62.89435702 -19 74 C-18.54949094 77.97949667 -18.60204574 80.28368233 -20.5625 83.8125 C-23.78546784 86.70490704 -25.66981551 87.5111082 -30 88 C-32.47887304 87.30591555 -34.71466377 86.34096675 -37.0625 85.28515625 C-40.48192238 83.78915896 -43.96439261 82.55992796 -47.5 81.375 C-48.6859375 80.97023438 -49.871875 80.56546875 -51.09375 80.1484375 C-74.17087085 73.02612817 -98.89661728 76.25141758 -120.2265625 87.03808594 C-124.8624789 89.55261108 -128.95028369 92.64308119 -133 96 C-133.83917969 96.67675781 -134.67835938 97.35351562 -135.54296875 98.05078125 C-153.29167255 113.10278277 -163.24115094 134.05380352 -166 157 C-166.06056151 158.64485066 -166.08781955 160.29172957 -166.0625 161.9375 C-166.04166667 163.29166667 -166.02083333 164.64583333 -166 166 C-159.25417453 168.85829303 -152.52902001 171.16564185 -145.4375 173 C-144.46022949 173.25418701 -143.48295898 173.50837402 -142.47607422 173.77026367 C-131.12941183 176.61546938 -119.59441489 178.4857253 -108 180 C-107.00586845 180.12992844 -107.00586845 180.12992844 -105.99165344 180.26248169 C-100.42810229 180.94091627 -94.94170326 181.17376969 -89.33984375 181.203125 C-87.99121498 181.21371445 -87.99121498 181.21371445 -86.61534119 181.22451782 C-53.05494744 181.42807959 -20.82713886 178.62825597 11 167 C12.62545162 165.37454838 12.21020748 163.62327727 12.25 161.375 C12.01635998 143.29126273 5.22367307 127.3648101 -4.64453125 112.52734375 C-6.86482688 108.38748417 -6.74840169 104.57356586 -6 100 C-4.75109607 96.96694759 -3.31869571 94.3370012 -1 92 C1.171875 91.28515625 1.171875 91.28515625 3 91 C13.11665379 102.50380727 20.49323819 114.59712195 25.80859375 128.953125 C26.9163886 132.10598086 26.9163886 132.10598086 29 135 C29.65272461 132.66840696 30.29725202 130.33502204 30.9375 128 C31.11990234 127.35160156 31.30230469 126.70320313 31.49023438 126.03515625 C35.04658594 112.97364686 35.00942852 99.21769042 32.6875 85.9375 C32.56987305 85.26017822 32.45224609 84.58285645 32.33105469 83.88500977 C31.39451789 79.02208437 29.83065089 74.59970265 28 70 C12.73678539 72.8876352 1.63897917 80.001173 -9 91 C-9.9178125 91.89332031 -10.835625 92.78664062 -11.78125 93.70703125 C-14.79640459 98.18198781 -14.79802352 101.84253811 -15 107.125 C-15.91737875 120.61709513 -19.73046142 131.30985585 -29.83984375 140.7109375 C-43.48179479 151.70261176 -60.14889252 153.41475196 -77 154 C-76.47110671 135.54344801 -75.19260795 119.0161506 -61.984375 104.78515625 C-52.18416202 95.96882292 -41.71970359 94.6703866 -29 94 C-32.80348652 100.83240283 -36.70144466 107.24173359 -41.71484375 113.2578125 C-43.1978766 114.90742742 -43.1978766 114.90742742 -43 117 C-38.86701465 115.40360992 -36.27784319 112.39817088 -33.375 109.1875 C-32.5854895 108.32233765 -32.5854895 108.32233765 -31.7800293 107.43969727 C-25.61301186 100.59045062 -20.11418638 93.28068671 -14.6953125 85.83203125 C-7.61308692 76.16442575 -0.64639799 68.57443931 9.71484375 62.41015625 C12.08471136 61.06889872 12.08471136 61.06889872 14 59 C-12.57363481 50.29128289 -39.91693432 47.64999315 -67 56 Z M-169.10400391 60.32519531 C-170.75342932 60.91224294 -172.41307245 61.47042565 -174.07421875 62.0234375 C-178.04928594 63.60395749 -180.35085022 64.80129602 -182.42578125 68.6328125 C-183.51771154 71.73786519 -184.31141802 74.78259061 -185 78 C-185.21011719 78.87527344 -185.42023438 79.75054687 -185.63671875 80.65234375 C-189.78630223 99.28132489 -188.10718829 117.71626593 -183 136 C-180.99084564 132.98626846 -179.84453631 130.25382466 -178.5625 126.875 C-178.15128906 125.79992187 -177.74007812 124.72484375 -177.31640625 123.6171875 C-174.52325129 115.94222759 -172.35806472 108.43542582 -170.6875 100.4375 C-167.53840847 86.11854367 -162.71589408 73.6761814 -155.5390625 60.9140625 C-153.84432796 58.25450428 -153.84432796 58.25450428 -154 56 C-159.01364698 56 -164.40211637 58.64246232 -169.10400391 60.32519531 Z M52 81 C52.06856201 81.58555664 52.13712402 82.17111328 52.20776367 82.77441406 C54.75696055 106.06179536 52.85125914 128.86613114 45 151 C56.03406584 147.12372036 67.25270188 138.43254655 72.875 128.125 C76.29035023 120.63837136 76.8359154 114.41243635 74.12109375 106.59375 C69.67673495 96.31133104 62.36920822 88.2770202 54 81 C53.34 81 52.68 81 52 81 Z M-217.09765625 90.046875 C-224.24466247 97.59323224 -229.26182461 105.5291342 -229.6875 116.125 C-229.13900261 126.74484304 -224.54519189 133.3278154 -216.97265625 140.5234375 C-213.6150521 143.32070561 -210.15718042 145.80127797 -206.5 148.1875 C-205.88842041 148.58654541 -205.27684082 148.98559082 -204.64672852 149.39672852 C-203.1395962 150.33517155 -201.57334518 151.17737732 -200 152 C-199.01 151.505 -199.01 151.505 -198 151 C-198.39832031 149.90945313 -198.79664063 148.81890625 -199.20703125 147.6953125 C-207.08069529 125.56024501 -208.42941908 104.34219752 -206 81 C-209.60115909 81 -214.65220425 87.66062389 -217.09765625 90.046875 Z M-238 147 C-240.20824379 155.03444313 -241.34236645 166.30128969 -238.12695312 174.12402344 C-235.65507619 178.27929635 -232.40606586 181.59887763 -229 185 C-227.61560644 186.59606709 -226.23912676 188.19907697 -224.875 189.8125 C-223.9208576 190.87876512 -222.96439432 191.94299828 -222 193 C-221.04850872 190.35696868 -221.03532496 188.75460093 -221.44140625 185.93359375 C-221.89595664 182.73266899 -222.0287231 179.9900583 -221.96484375 176.78515625 C-221.48231297 166.3490697 -221.48231297 166.3490697 -225.11328125 156.9609375 C-227.6531758 155.01180361 -230.17698558 153.49890704 -233 152 C-234.7977111 150.42007328 -236.36233497 148.7468427 -238 147 Z M83 147 C82.33613281 147.67546875 81.67226563 148.3509375 80.98828125 149.046875 C80.10527344 149.93890625 79.22226562 150.8309375 78.3125 151.75 C77.44238281 152.63171875 76.57226562 153.5134375 75.67578125 154.421875 C73 157 73 157 70.21875 158.59375 C66.50601002 162.62024266 67.2162744 167.47469414 67.1875 172.75 C67.16236328 173.82894531 67.13722656 174.90789062 67.11132812 176.01953125 C67.05246701 178.68005377 67.0161796 181.33893151 67 184 C71.79645905 180.15794732 75.7291138 176.1906869 79.375 171.25 C79.81199219 170.67378906 80.24898438 170.09757812 80.69921875 169.50390625 C84.42091915 164.56084286 85.15566898 162.21341417 85.1875 156 C85.20167969 154.741875 85.21585937 153.48375 85.23046875 152.1875 C85.34263547 148.90645401 85.34263547 148.90645401 83 147 Z M-203 173 C-202.18426928 182.17697055 -201.17137816 191.20669172 -199.0625 200.1875 C-198.90491211 200.86868896 -198.74732422 201.54987793 -198.58496094 202.25170898 C-196.73003072 210.49294262 -196.73003072 210.49294262 -191.58984375 216.77734375 C-190.27693359 217.35162109 -190.27693359 217.35162109 -188.9375 217.9375 C-188.05964844 218.33839844 -187.18179688 218.73929688 -186.27734375 219.15234375 C-184.09260204 220.11627741 -184.09260204 220.11627741 -182 220 C-181.75894531 220.84691406 -181.51789063 221.69382812 -181.26953125 222.56640625 C-179.8604138 226.37752699 -177.92483776 229.57804848 -175.6875 232.9375 C-175.08627319 233.85619873 -175.08627319 233.85619873 -174.47290039 234.79345703 C-171.74808107 238.93606403 -168.94489213 243.01014615 -166 247 C-190.92341799 241.34782097 -212.30916246 228.05327172 -231 211 C-232.13518298 214.32646983 -231.90126411 216.02549295 -230.5234375 219.23046875 C-230.18183594 220.03419922 -229.84023437 220.83792969 -229.48828125 221.66601562 C-229.12089844 222.49810547 -228.75351563 223.33019531 -228.375 224.1875 C-228.03082031 225.00025391 -227.68664062 225.81300781 -227.33203125 226.65039062 C-219.05407606 245.84852656 -205.24500243 254.17244866 -186.31640625 261.984375 C-167.5738936 269.35597982 -149.200022 272.23220207 -129.125 272.25 C-128.34032349 272.25100708 -127.55564697 272.25201416 -126.74719238 272.25305176 C-115.21403805 272.24302447 -104.24752624 271.74648896 -93 269 C-91.78054688 268.73316406 -90.56109375 268.46632813 -89.3046875 268.19140625 C-64.05342629 262.16005405 -40.2856569 249.74051043 -21.2890625 232.078125 C-19 230 -19 230 -16.54296875 228.1328125 C-13.51308082 225.59161617 -11.10479016 222.73078619 -8.6875 219.625 C-8.21183594 219.01503174 -7.73617187 218.40506348 -7.24609375 217.77661133 C-0.47919668 208.9030173 4.70907171 199.70003744 8 189 C-7.20772834 191.7628847 -15.50859162 195.7841221 -24.65039062 208.2421875 C-43.09177418 232.26135566 -78.95666464 246.24791907 -107.87402344 250.4140625 C-139.68892874 254.40020192 -139.68892874 254.40020192 -152 249 C-167.13996952 236.24913914 -181.6544698 210.42502189 -183.4453125 190.96484375 C-183.91248463 184.13216351 -183.91248463 184.13216351 -187.56005859 178.66845703 C-191.98648931 175.93983535 -197.73209103 173 -203 173 Z M31 181 C28.02822495 186.45303872 26.96061371 192.6769107 25.60449219 198.68505859 C24.59350215 202.55670944 22.78481087 205.88359722 20.78515625 209.3203125 C20.39650391 210.15175781 20.39650391 210.15175781 20 211 C20.33 211.66 20.66 212.32 21 213 C23.56440947 211.9001064 26.12649227 210.795264 28.6875 209.6875 C29.40873047 209.37876953 30.12996094 209.07003906 30.87304688 208.75195312 C32.92811289 207.86048613 34.96465819 206.93545333 37 206 C37.95003906 205.58105469 38.90007812 205.16210938 39.87890625 204.73046875 C42.9336675 202.23827863 43.46971859 199.32655767 44.25 195.625 C44.41274414 194.92052734 44.57548828 194.21605469 44.74316406 193.49023438 C46.15577732 187.04500511 46.77423864 180.59223172 47 174 C41.30388085 174 35.02536411 177.00894645 31 181 Z M-164 189 C-159.74278812 204.75987091 -152.92681766 218.6938602 -142 231 C-139.29283758 231.90238747 -137.76223232 232.11851302 -134.98828125 232.09765625 C-134.23095703 232.09443359 -133.47363281 232.09121094 -132.69335938 232.08789062 C-131.90767578 232.07951172 -131.12199219 232.07113281 -130.3125 232.0625 C-129.51521484 232.05798828 -128.71792969 232.05347656 -127.89648438 232.04882812 C-125.93095743 232.0370585 -123.96546915 232.01912348 -122 232 C-123.95530717 228.58121139 -126.07268598 225.61845471 -128.625 222.625 C-132.03776815 218.4203188 -134.92223665 214.07826288 -137.6875 209.4375 C-138.07607178 208.79272705 -138.46464355 208.1479541 -138.86499023 207.48364258 C-140.48646566 204.75025843 -141.95208548 202.11379698 -143.1875 199.1796875 C-144.95315306 195.00005565 -146.02757965 193.42019581 -150.30859375 191.5703125 C-154.88163269 190.21291097 -159.21191177 189 -164 189 Z M76.8125 201.875 C57.85958725 219.07050999 35.56206106 229.61582489 10.91796875 235.9921875 C10.26094971 236.16322998 9.60393066 236.33427246 8.92700195 236.51049805 C7.03734129 236.99051447 5.13974982 237.43895716 3.2421875 237.88671875 C-0.2710025 239.09305508 -1.63828189 240.18474309 -4.0625 242.9375 C-12.25375124 251.6032019 -21.89469755 258.61957288 -32.0859375 264.7578125 C-32.71757812 265.16773438 -33.34921875 265.57765625 -34 266 C-34 266.33 -34 266.66 -34 267 C-23.40962467 267.30713226 -13.07129154 267.15481427 -2.5625 265.6875 C-1.24149292 265.51093872 -1.24149292 265.51093872 0.10620117 265.33081055 C6.6272061 264.34135994 10.66678967 262.87327101 14.82421875 257.56640625 C15.78810695 256.23858763 16.74234609 254.90371841 17.6875 253.5625 C18.17283203 252.89412109 18.65816406 252.22574219 19.15820312 251.53710938 C21.82408436 247.86449502 21.82408436 247.86449502 23.94702148 243.87036133 C25.7176448 240.7252778 29.11410128 240.1936663 32.375 239.125 C39.61337718 236.59910796 46.19764827 233.57123466 53 230 C50.03 236.27 47.06 242.54 44 249 C51.82922157 246.39025948 57.57123601 242.00264517 64 237 C64.89074219 236.30777344 65.78148437 235.61554688 66.69921875 234.90234375 C77.07767408 225.75732114 79.67302745 211.06370556 82 198 C79.98618605 198 78.15980313 200.60462282 76.8125 201.875 Z M-121 199 C-117.86305264 206.61830073 -112.79065676 212.40135451 -107.35449219 218.46533203 C-106.14064641 219.84064468 -104.97681742 221.25972479 -103.8203125 222.68359375 C-101.9809447 224.81474881 -100.37764689 226.49528229 -98 228 C-94.13464588 227.93864517 -92.4813521 227.44123108 -89 226 C-87.72603476 225.52914956 -86.45122025 225.06059358 -85.17578125 224.59375 C-71.2645571 219.33360858 -57.99674928 212.14288404 -47 202 C-47 201.67 -47 201.34 -47 201 C-48.36257935 201.0611499 -48.36257935 201.0611499 -49.75268555 201.12353516 C-73.77984179 202.14750976 -97.05202783 201.47679464 -121 199 Z M43 272 C40.54619983 272.84265931 38.19874754 273.74477882 35.8125 274.75 C35.16474609 275.01554687 34.51699219 275.28109375 33.84960938 275.5546875 C32.53305187 276.09656731 31.22088278 276.64921981 29.91308594 277.21191406 C28.18427391 277.92408931 26.4073947 278.51672014 24.62890625 279.09375 C19.09635096 281.47835087 15.20071853 286.47141765 11.125 290.75 C5.08099913 297.04238447 -0.92807604 302.8657361 -8 308 C-3.1309967 309.6230011 0.40130988 308.03812109 5 306 C20.00888524 297.41363476 33.08635674 285.4077575 45 273 C44.34 272.67 43.68 272.34 43 272 Z M-77.25 284.75 C-79.08091539 285.31353408 -80.91295665 285.87342297 -82.74609375 286.4296875 C-83.63409668 286.70135742 -84.52209961 286.97302734 -85.43701172 287.25292969 C-90.88142151 288.83988853 -96.43290643 289.93336358 -102 291 C-97.90649791 294.61807567 -93.70112461 296.77161557 -88.75 298.9375 C-87.56942017 299.45691162 -87.56942017 299.45691162 -86.36499023 299.98681641 C-74.0027753 305.28297034 -58.60694962 311.22005028 -45 310 C-42.49208013 308.82441256 -40.31978496 307.65640095 -38 306.1875 C-37.35716064 305.79095215 -36.71432129 305.3944043 -36.05200195 304.98583984 C-23.7387428 297.36693902 -23.7387428 297.36693902 -14 287 C-14.62753174 286.98541748 -15.25506348 286.97083496 -15.90161133 286.95581055 C-28.34444484 286.63507807 -40.45449307 285.93735894 -52.7109375 283.71875 C-54.13985949 283.47464249 -55.56958457 283.23519824 -57 283 C-57.79148437 282.86368164 -58.58296875 282.72736328 -59.3984375 282.58691406 C-65.97583584 281.65939812 -70.98835103 282.69809409 -77.25 284.75 Z M-188 283 C-164.22755764 307.20077465 -127.74326569 326.64566478 -93.25 327.375 C-88.87516648 327.21524484 -85.10883631 326.4941223 -81 325 C-81 324.34 -81 323.68 -81 323 C-82.16273438 322.53851563 -83.32546875 322.07703125 -84.5234375 321.6015625 C-101.56860818 314.71096159 -116.70870813 306.59355971 -131 295 C-134.08403042 292.94397972 -135.24561885 292.67088128 -138.8046875 292.32421875 C-139.77075928 292.22101318 -140.73683105 292.11780762 -141.73217773 292.01147461 C-142.76930908 291.90456299 -143.80644043 291.79765137 -144.875 291.6875 C-155.72954543 290.46120623 -166.11381745 288.32709099 -176.67529297 285.58544922 C-180.43216755 284.63932601 -184.21429426 283.82232047 -188 283 Z " fill="#2A4D1B" transform="translate(397,154)"/>
<path d="M0 0 C-1.4758267 5.99976608 -4.80809083 10.26198837 -8.4375 15.125 C-9.02337891 15.92292969 -9.60925781 16.72085937 -10.21289062 17.54296875 C-11.80034851 19.70162318 -13.39655055 21.85320712 -15 24 C-15.52964355 24.70979004 -16.05928711 25.41958008 -16.60498047 26.15087891 C-18.64151042 28.8503325 -20.82384325 31.41213792 -23 34 C-9.36104829 26.22665174 2.06657252 16.21297534 13 5 C13.66 4.34 14.32 3.68 15 3 C15.58364752 18.8233328 13.62256392 32.13481703 2.77734375 44.54296875 C-9.67710903 56.63290096 -25.76251088 60.40029128 -42.61621094 60.15380859 C-44.41107387 60.11292239 -46.20560928 60.05802221 -48 60 C-48.51576562 40.66834037 -47.08051072 24.8097275 -33.20703125 10.0078125 C-23.15305855 0.86136654 -13.14924951 -0.3282753 0 0 Z " fill="#91A973" transform="translate(368,248)"/>
<path d="M0 0 C8.26786377 -0.8132325 13.10569472 1.56718547 20 6 C20.65871094 6.37125 21.31742187 6.7425 21.99609375 7.125 C23.625 8.1875 23.625 8.1875 26 11 C30.32610626 33.29109724 28.29224032 63.41551935 18 84 C16.00976562 85.09741211 16.00976562 85.09741211 13.40625 86.27734375 C12.4575 86.70853516 11.50875 87.13972656 10.53125 87.58398438 C9.5309375 88.03064453 8.530625 88.47730469 7.5 88.9375 C6.0459375 89.60168945 6.0459375 89.60168945 4.5625 90.27929688 C-1.20914429 92.88196712 -6.95767373 95.108652 -13 97 C-12.56429688 96.36835938 -12.12859375 95.73671875 -11.6796875 95.0859375 C3.85866601 71.74477444 9.44218937 42.36795456 4.28491211 14.85205078 C3.2489413 9.72608417 1.86359315 4.88083919 0 0 Z " fill="#8FA771" transform="translate(424,223)"/>
<path d="M0 0 C-0.66 0.33 -1.32 0.66 -2 1 C-2.42732422 1.87785156 -2.42732422 1.87785156 -2.86328125 2.7734375 C-4.26437225 5.51784254 -6.0706809 7.38794849 -8.1875 9.625 C-11.40781447 13.08119737 -13.98451698 16.47009933 -16.4375 20.5 C-19.31714328 24.72435142 -19.31714328 24.72435142 -22.12890625 25.859375 C-23.75533029 26.12731965 -25.39138636 26.34078935 -27.03125 26.5078125 C-31.63215661 27.27059439 -35.72095599 29.16147455 -39.99804688 30.96972656 C-44.83346887 33 -44.83346887 33 -47 33 C-46.15899796 25.72587849 -42.63701729 20.23162586 -39 14 C-38.56945312 13.18144531 -38.13890625 12.36289063 -37.6953125 11.51953125 C-34.76009167 6.66092037 -31.72539254 5.2465092 -26.3125 3.625 C-23.8834693 3.04653747 -21.44568041 2.5034445 -19 2 C-17.98550781 1.77570313 -16.97101563 1.55140625 -15.92578125 1.3203125 C-10.5348219 0.22257182 -5.49496631 -0.20735722 0 0 Z " fill="#4C6E3A" transform="translate(264,186)"/>
<path d="M0 0 C8.24830097 -0.81130829 13.1324481 1.54508574 20 6 C20.68191406 6.42925781 21.36382812 6.85851562 22.06640625 7.30078125 C23.75 8.5 23.75 8.5 26 11 C25.640625 14.15625 25.640625 14.15625 25 17 C23.97519531 16.566875 22.95039063 16.13375 21.89453125 15.6875 C20.53404444 15.12453994 19.17335665 14.56206544 17.8125 14 C17.13896484 13.71382812 16.46542969 13.42765625 15.77148438 13.1328125 C12.05006206 11.60793701 9.03528592 10.62389568 5 11 C5 10.34 5 9.68 5 9 C4.34 9 3.68 9 3 9 C2.01 6.03 1.02 3.06 0 0 Z " fill="#788F62" transform="translate(424,223)"/>
<path d="M0 0 C0 2.64 0 5.28 0 8 C-0.66 8 -1.32 8 -2 8 C-2.33 8.66 -2.66 9.32 -3 10 C-3.66 10 -4.32 10 -5 10 C-6.28296562 10.45039708 -7.55092434 10.94409519 -8.80859375 11.4609375 C-9.92911133 11.92113281 -9.92911133 11.92113281 -11.07226562 12.390625 C-11.85279297 12.71546875 -12.63332031 13.0403125 -13.4375 13.375 C-14.21416016 13.69210937 -14.99082031 14.00921875 -15.79101562 14.3359375 C-19.11637589 15.71076345 -21.98836015 16.9922401 -25 19 C-24.52983082 14.2042744 -24.08828521 10.75760938 -21 7 C-17.93010648 5.37728293 -14.72484983 4.28814263 -11.4375 3.1875 C-10.56158203 2.87619141 -9.68566406 2.56488281 -8.78320312 2.24414062 C-2.37630495 0 -2.37630495 0 0 0 Z " fill="#234016" transform="translate(427,335)"/>
<path d="M0 0 C0 0.66 0 1.32 0 2 C1.98 2 3.96 2 6 2 C6.495 3.485 6.495 3.485 7 5 C-1.6540033 6.31858334 -10.26609735 7.39214597 -19 8 C-18.34 8.66 -17.68 9.32 -17 10 C-21.40114397 9.49701212 -23.71195019 7.91227269 -27 5 C-26.67 4.01 -26.34 3.02 -26 2 C-22.41763629 0.80587876 -18.98714971 0.6454983 -15.25 0.4375 C-14.21359375 0.37272461 -14.21359375 0.37272461 -13.15625 0.30664062 C-8.76305295 0.04651712 -4.40062645 -0.04031988 0 0 Z " fill="#224116" transform="translate(293,445)"/>
<path d="M0 0 C0 3.40193623 -0.61981931 4.34715255 -2.40625 7.16015625 C-3.15068359 8.3502832 -3.15068359 8.3502832 -3.91015625 9.56445312 C-4.43480469 10.38880859 -4.95945312 11.21316406 -5.5 12.0625 C-6.53521431 13.69671423 -7.56666444 15.33332099 -8.59375 16.97265625 C-9.05458984 17.69718994 -9.51542969 18.42172363 -9.99023438 19.16821289 C-11.1609188 20.94330707 -11.1609188 20.94330707 -11 23 C-14.20380017 25.13586678 -15.01939967 25.23132175 -18.6875 25.125 C-19.89986328 25.09792969 -19.89986328 25.09792969 -21.13671875 25.0703125 C-21.75160156 25.04710937 -22.36648438 25.02390625 -23 25 C-22.21625 23.96875 -21.4325 22.9375 -20.625 21.875 C-18.53458191 19.12236909 -16.53827665 16.33166033 -14.62109375 13.45703125 C-14.19940918 12.83650879 -13.77772461 12.21598633 -13.34326172 11.57666016 C-12.50443817 10.33937144 -11.67864293 9.09312548 -10.86767578 7.83740234 C-7.80684343 3.36806727 -5.12962123 1.74344182 0 0 Z " fill="#1E3D10" transform="translate(422,366)"/>
<path d="M0 0 C0.6875 1.8125 0.6875 1.8125 1 4 C-0.53945174 6.04263823 -1.50384696 6.89176584 -4.0234375 7.44140625 C-5.18746094 7.50134766 -5.18746094 7.50134766 -6.375 7.5625 C-10.53318796 7.8547299 -14.57453298 8.37937745 -18.6875 9.0625 C-23.21111847 9.78435401 -27.42835451 10.21263467 -32 10 C-30.625 8 -30.625 8 -29 6 C-28.34 6 -27.68 6 -27 6 C-27 5.34 -27 4.68 -27 4 C-25.83082031 3.79503906 -24.66164063 3.59007812 -23.45703125 3.37890625 C-21.90884878 3.10680145 -20.360672 2.83466433 -18.8125 2.5625 C-18.04357422 2.42779297 -17.27464844 2.29308594 -16.48242188 2.15429688 C-13.35477677 1.60393872 -10.23530814 1.04859625 -7.125 0.40625 C-4.71347636 -0.05477658 -2.44930833 -0.06998024 0 0 Z " fill="#1E3E10" transform="translate(413,436)"/>
<path d="M0 0 C2.73973659 4.10960489 3.64016974 8.08981629 4 13 C2.8125 16.6875 2.8125 16.6875 1 20 C0.54625 21.11375 0.0925 22.2275 -0.375 23.375 C-5.62295082 35.08196721 -5.62295082 35.08196721 -10 38 C-9.6283695 34.84114071 -9.04410571 33.06235635 -7.1875 30.4375 C-0.88779946 21.37880652 -0.29094833 10.64870904 0 0 Z " fill="#19390B" transform="translate(492,263)"/>
<path d="M0 0 C0.66 0.66 1.32 1.32 2 2 C0.53101883 5.68859558 -1.35749864 7.24736364 -4.625 9.4375 C-5.51445312 10.03433594 -6.40390625 10.63117188 -7.3203125 11.24609375 C-8.20460938 11.82488281 -9.08890625 12.40367187 -10 13 C-10.78117187 13.52722656 -11.56234375 14.05445313 -12.3671875 14.59765625 C-16.38818444 17.24149856 -16.38818444 17.24149856 -18 18 C-18.66 17.67 -19.32 17.34 -20 17 C-19.55269531 16.63648438 -19.10539062 16.27296875 -18.64453125 15.8984375 C-15.63119638 13.39267929 -12.82551217 10.94401205 -10.375 7.875 C-7.31463202 4.17034402 -4.58796066 1.52932022 0 0 Z " fill="#2A4D19" transform="translate(362,266)"/>
<path d="M0 0 C0.33 0 0.66 0 1 0 C1 6.6 1 13.2 1 20 C0.34 20.33 -0.32 20.66 -1 21 C-2.80004403 13.60643072 -4.14497955 6.90829924 0 0 Z " fill="#17390A" transform="translate(149,258)"/>
<path d="M0 0 C-1.75 5.75 -1.75 5.75 -4 8 C-4.66 7.01 -5.32 6.02 -6 5 C-7.98 5.99 -9.96 6.98 -12 8 C-12.66 7.34 -13.32 6.68 -14 6 C-12.04414675 4.99515796 -10.08523763 3.99626195 -8.125 3 C-6.48917969 2.1646875 -6.48917969 2.1646875 -4.8203125 1.3125 C-2 0 -2 0 0 0 Z " fill="#788A70" transform="translate(450,384)"/>
<path d="M0 0 C1.79633773 6.1993911 -0.16697933 12.01213249 -2 18 C-2.66 18 -3.32 18 -4 18 C-3.41632611 11.69632197 -1.95928381 6.01339937 0 0 Z " fill="#5B7451" transform="translate(146,263)"/>
<path d="M0 0 C0.66 0.33 1.32 0.66 2 1 C0.68 2.32 -0.64 3.64 -2 5 C-1.34 5.66 -0.68 6.32 0 7 C-1.6188996 8.03048037 -3.24532489 9.04914678 -4.875 10.0625 C-5.77992188 10.63097656 -6.68484375 11.19945312 -7.6171875 11.78515625 C-8.40351563 12.18605469 -9.18984375 12.58695312 -10 13 C-10.66 12.67 -11.32 12.34 -12 12 C-11.55269531 11.63648438 -11.10539062 11.27296875 -10.64453125 10.8984375 C-6.61206348 7.5452127 -3.23995546 4.12357967 0 0 Z " fill="#4D683F" transform="translate(354,271)"/>
<path d="M0 0 C0.66 0.33 1.32 0.66 2 1 C-0.97 4.3 -3.94 7.6 -7 11 C-7.99 10.67 -8.98 10.34 -10 10 C-6.7 6.7 -3.4 3.4 0 0 Z " fill="#526A47" transform="translate(398,221)"/>
<path d="M0 0 C0.66 0.99 1.32 1.98 2 3 C1.01 3.33 0.02 3.66 -1 4 C-1.309375 4.66 -1.61875 5.32 -1.9375 6 C-2.288125 6.66 -2.63875 7.32 -3 8 C-5.06640625 8.625 -5.06640625 8.625 -7 9 C-6.02180976 7.68677212 -5.0424189 6.37443848 -4.0625 5.0625 C-3.51722656 4.33160156 -2.97195312 3.60070312 -2.41015625 2.84765625 C-1 1 -1 1 0 0 Z " fill="#526D48" transform="translate(185,197)"/>
<path d="M0 0 C0.33 1.32 0.66 2.64 1 4 C-1.97 6.475 -1.97 6.475 -5 9 C-5.66 8.67 -6.32 8.34 -7 8 C-4.69 5.36 -2.38 2.72 0 0 Z " fill="#506B45" transform="translate(387,374)"/>
<path d="M0 0 C0 0.33 0 0.66 0 1 C-1.65 1 -3.3 1 -5 1 C-5.33 1.66 -5.66 2.32 -6 3 C-7.32 2.67 -8.64 2.34 -10 2 C-10 2.66 -10 3.32 -10 4 C-12.97 3.505 -12.97 3.505 -16 3 C-10.72622272 0.07012374 -5.97250691 -0.11710798 0 0 Z " fill="#83957A" transform="translate(348,186)"/>
<path d="M0 0 C-1.14018002 3.42054006 -1.92458518 4.2426201 -5 6 C-7.13671875 5.578125 -7.13671875 5.578125 -9 5 C-7.87926138 4.16094435 -6.75325453 3.32892169 -5.625 2.5 C-4.99851562 2.0359375 -4.37203125 1.571875 -3.7265625 1.09375 C-2 0 -2 0 0 0 Z " fill="#5B7250" transform="translate(409,215)"/>
<path d="M0 0 C0 4.38968456 -2.12805101 5.76905739 -5 9 C-5.99 8.67 -6.98 8.34 -8 8 C-5.36 5.36 -2.72 2.72 0 0 Z " fill="#546B49" transform="translate(436,432)"/>
<path d="M0 0 C3.40312738 1.05875074 6.01353231 2.00902154 9 4 C9 4.66 9 5.32 9 6 C2.42696629 4.1011236 2.42696629 4.1011236 0 1 C0 0.67 0 0.34 0 0 Z " fill="#546B49" transform="translate(198,387)"/>
<path d="M0 0 C0.66 0.33 1.32 0.66 2 1 C-0.23407889 4.35111834 -1.26215824 5.81553956 -5.25 6.8125 C-6.61125 6.9053125 -6.61125 6.9053125 -8 7 C-5.4837822 4.39391727 -2.94865641 2.10618315 0 0 Z " fill="#687D5E" transform="translate(457,295)"/>
<path d="M0 0 C2.64 0.33 5.28 0.66 8 1 C8 1.66 8 2.32 8 3 C8.99 3.33 9.98 3.66 11 4 C9.54054712 3.91291331 8.08234132 3.80473093 6.625 3.6875 C5.81289063 3.62949219 5.00078125 3.57148438 4.1640625 3.51171875 C2 3 2 3 0 0 Z " fill="#576A4E" transform="translate(333,434)"/>
<path d="M0 0 C0.33 0.99 0.66 1.98 1 3 C-0.9375 5.6875 -0.9375 5.6875 -3 8 C-3.99 7.67 -4.98 7.34 -6 7 C-4.02 4.69 -2.04 2.38 0 0 Z " fill="#5A7050" transform="translate(371,253)"/>
<path d="M0 0 C0.66 0.33 1.32 0.66 2 1 C0.8125 3 0.8125 3 -1 5 C-3.6875 5.25 -3.6875 5.25 -6 5 C-5.195625 4.360625 -4.39125 3.72125 -3.5625 3.0625 C-1.7249496 1.59396498 -1.7249496 1.59396498 0 0 Z " fill="#5F7755" transform="translate(358,399)"/>
<path d="M0 0 C1.32 1.32 2.64 2.64 4 4 C0.23375329 5.25541557 -1.37188934 4.37061958 -5 3 C-4.360625 2.87625 -3.72125 2.7525 -3.0625 2.625 C-2.0415625 2.315625 -2.0415625 2.315625 -1 2 C-0.67 1.34 -0.34 0.68 0 0 Z " fill="#98A791" transform="translate(228,397)"/>
<path d="M0 0 C0.86625 0.3403125 0.86625 0.3403125 1.75 0.6875 C0 2.25 0 2.25 -2.25 3.6875 C-4.5 3.375 -4.5 3.375 -6.25 2.6875 C-2.80384615 -0.38942308 -2.80384615 -0.38942308 0 0 Z " fill="#4F6845" transform="translate(453.25,397.3125)"/>
<path d="M0 0 C0.625 1.875 0.625 1.875 1 4 C0.34 4.66 -0.32 5.32 -1 6 C-3.125 5.625 -3.125 5.625 -5 5 C-3.35 3.35 -1.7 1.7 0 0 Z " fill="#163808" transform="translate(356,271)"/>
<path d="M0 0 C3.45925163 1.2491742 6.14693203 2.67527795 9 5 C5.625 4.75 5.625 4.75 2 4 C0.5625 1.9375 0.5625 1.9375 0 0 Z " fill="#657C5C" transform="translate(400,156)"/>
<path d="" fill="#F7F8EF" transform="translate(0,0)"/>
</svg>
